<?xml version="1.0" standalone="no"?>
<!DOCTYPE svg PUBLIC "-//W3C//DTD SVG 20010904//EN"
 "http://www.w3.org/TR/2001/REC-SVG-20010904/DTD/svg10.dtd">
<svg version="1.0" xmlns="http://www.w3.org/2000/svg"
 width="246.000000pt" height="125.000000pt" viewBox="0 0 246.000000 125.000000"
 preserveAspectRatio="xMidYMid meet">
<metadata>
Created by potrace 1.10, written by Peter Selinger 2001-2011
</metadata>
<g transform="translate(0.000000,125.000000) scale(0.100000,-0.100000)"
fill="#000000" stroke="none">
<path d="M1518 1138 c-23 -28 -22 -31 2 -53 11 -10 20 -23 20 -28 0 -12 -60
50 -76 79 -7 10 -15 15 -20 11 -5 -4 -4 -16 2 -25 5 -9 8 -27 6 -40 -3 -23 -4
-23 -23 -6 -27 24 -33 12 -9 -19 11 -14 20 -28 20 -32 0 -4 -8 3 -18 15 -16
20 -19 20 -31 7 -9 -12 -19 -14 -37 -7 -18 7 -24 6 -25 -5 -3 -35 -5 -40 -17
-38 -6 2 -23 -2 -37 -7 -17 -7 -25 -6 -25 1 0 6 -6 9 -14 6 -8 -3 -16 2 -19
14 -8 31 -21 22 -44 -31 -12 -28 -27 -50 -33 -50 -16 0 1 105 20 124 12 12 13
29 1 22 -5 -4 -12 0 -15 6 -3 7 -3 3 -1 -9 3 -12 1 -24 -5 -28 -5 -3 -10 0
-10 7 -1 16 -14 -6 -25 -41 -5 -17 -4 -21 5 -16 8 5 11 1 8 -11 -2 -11 -9 -18
-16 -17 -6 2 -9 -3 -6 -10 3 -8 -2 -14 -11 -14 -8 0 -15 6 -15 14 0 7 -7 13
-15 13 -11 0 -12 -5 -5 -26 15 -39 12 -49 -10 -29 -10 9 -26 15 -35 12 -11 -5
-15 0 -15 18 0 18 -5 25 -20 25 -19 0 -20 2 -5 30 20 38 19 43 -4 30 -14 -7
-20 -7 -23 1 -4 12 -32 -10 -41 -33 -4 -10 -7 -10 -15 0 -7 11 -10 9 -15 -7
-3 -13 -1 -19 5 -15 6 4 9 1 6 -7 -3 -10 -19 -13 -56 -11 -44 2 -50 0 -47 -15
3 -21 -22 -53 -42 -53 -7 0 -25 -7 -38 -16 -13 -9 -28 -13 -34 -10 -5 3 -17
-16 -26 -43 -22 -69 -36 -78 -91 -63 -50 14 -85 16 -67 4 11 -7 16 -25 14 -50
-1 -10 -10 -8 -35 7 -18 12 -36 21 -40 21 -11 0 -6 -36 6 -49 11 -11 10 -13
-5 -7 -49 17 -64 16 -85 -2 -12 -10 -20 -21 -18 -23 7 -6 -86 -1 -114 6 -24 7
-24 6 6 -22 26 -25 28 -31 16 -43 -13 -12 -18 -9 -39 14 -13 16 -26 26 -28 24
-3 -3 6 -15 20 -28 29 -28 31 -38 8 -55 -15 -11 -14 -14 5 -33 18 -18 19 -22
6 -22 -14 0 -14 -3 -4 -15 7 -8 9 -15 4 -15 -4 0 1 -7 12 -16 18 -15 18 -15
-11 -10 -29 5 -29 5 5 -11 19 -8 44 -16 55 -18 11 -1 34 -6 50 -10 l30 -7 -30
17 c-43 24 -43 27 0 21 22 -2 43 -5 48 -5 4 -1 7 -10 7 -21 0 -12 7 -20 17
-20 14 0 13 -3 -5 -16 -35 -24 -28 -42 14 -37 21 2 33 0 30 -6 -4 -5 -2 -13 4
-16 6 -4 8 -15 5 -26 -7 -21 -14 -21 110 -5 28 4 56 3 64 -3 20 -13 5 -41 -23
-41 -24 0 -47 -30 -23 -30 7 0 4 -5 -6 -11 -14 -8 -15 -14 -5 -32 7 -12 11
-25 10 -29 -3 -12 6 -10 44 8 19 9 32 20 29 24 -3 4 15 11 40 15 25 3 43 10
40 15 -3 5 9 5 27 0 17 -6 34 -14 38 -20 12 -20 250 -52 250 -33 0 4 53 9 117
10 113 2 183 15 183 34 0 5 7 9 15 9 8 0 15 6 15 13 0 8 4 7 10 -3 7 -11 10
-11 10 -2 0 8 5 10 12 6 8 -5 9 -2 5 10 -4 10 -3 15 4 11 5 -4 16 -2 23 4 8 6
27 12 42 12 77 0 150 12 161 26 8 11 16 12 29 5 13 -7 27 -6 47 5 16 8 38 12
49 10 11 -3 18 -3 15 0 -9 8 30 46 41 39 5 -3 15 0 21 8 7 8 24 17 38 21 15 3
32 12 37 20 9 11 17 12 46 1 48 -17 120 -9 120 13 1 14 2 14 11 -1 20 -35 37
-20 52 44 13 59 16 63 41 61 18 -1 24 2 19 10 -4 7 1 6 10 -2 10 -8 17 -21 15
-30 -1 -9 1 -21 5 -28 4 -6 8 -36 9 -65 1 -29 3 -45 5 -36 3 9 12 20 22 23 12
4 21 25 30 80 10 52 18 75 28 75 12 0 12 3 -1 16 -9 8 -14 19 -11 24 3 5 -1
10 -7 13 -7 3 7 8 32 13 44 7 45 8 15 15 -27 8 -30 12 -33 56 -2 26 -6 64 -11
83 -7 34 -8 33 -25 -37 -10 -40 -22 -73 -27 -73 -5 0 -9 5 -9 11 0 5 -5 7 -10
4 -6 -3 -20 -3 -31 0 -16 6 -20 13 -17 36 3 16 1 29 -4 29 -4 0 -8 8 -8 18 0
10 -3 21 -6 25 -10 9 -34 -4 -34 -19 0 -21 -57 23 -64 49 -3 15 -9 18 -23 12
-10 -5 -38 -9 -63 -9 -45 -1 -45 -1 -45 33 -1 18 5 35 12 38 13 5 13 29 0 51
-5 6 -6 16 -3 21 8 12 -20 34 -33 27 -5 -4 -21 -1 -34 5 -21 10 -30 8 -57 -11
-18 -13 -29 -28 -26 -36 3 -8 1 -14 -4 -14 -6 0 -10 7 -10 15 0 8 -4 15 -10
15 -5 0 -7 6 -4 14 3 9 -4 15 -24 18 -20 3 -28 0 -26 -7 3 -7 -4 -23 -15 -36
-20 -23 -20 -23 -21 -3 0 12 -9 33 -20 46 -10 14 -16 28 -13 32 3 3 1 6 -5 6
-12 0 -47 54 -57 90 -7 25 -7 25 10 5 15 -18 16 -18 11 -2 -3 10 -6 21 -6 23
0 2 -7 4 -15 4 -9 0 -18 7 -21 15 -8 20 -16 19 -36 -7z m-201 -185 c-4 -3 -7
0 -7 7 0 7 3 10 7 7 3 -4 3 -10 0 -14z m-227 -33 c0 -5 -4 -10 -10 -10 -5 0
-10 5 -10 10 0 6 5 10 10 10 6 0 10 -4 10 -10z m613 -71 c-3 -10 -10 -19 -16
-19 -6 0 -7 3 -4 7 4 3 3 11 -3 17 -6 8 -3 12 9 13 14 1 17 -4 14 -18z m-1143
-133 c-1 -28 -16 -36 -38 -20 -12 8 -20 20 -16 25 4 6 11 6 20 -2 12 -10 13
-9 8 5 -5 12 -2 15 10 10 9 -3 16 -11 16 -18z m1367 -283 c5 3 10 0 10 -8 0
-8 -6 -15 -14 -15 -7 0 -13 2 -13 4 0 2 -3 13 -6 23 -4 14 -4 15 4 4 5 -7 14
-11 19 -8z m30 0 c-4 -3 -7 0 -7 7 0 7 3 10 7 7 3 -4 3 -10 0 -14z m-870 -169
c75 -22 58 -38 -34 -32 -42 3 -69 1 -61 -3 16 -11 23 -10 -103 -14 -59 -2
-120 0 -135 4 l-29 7 28 18 c23 16 32 17 57 6 25 -10 33 -9 53 6 32 25 151 29
224 8z m130 -21 c-4 -3 -10 -3 -14 0 -3 4 0 7 7 7 7 0 10 -3 7 -7z m-147 -73
c0 -12 -8 -12 -35 0 -18 8 -17 9 8 9 15 1 27 -3 27 -9z"/>
<path d="M1658 1018 c-3 -16 -1 -31 4 -34 4 -3 8 4 8 16 0 12 4 19 8 16 4 -2
8 3 9 13 2 30 -25 20 -29 -11z"/>
<path d="M2260 790 c0 -7 3 -10 7 -7 3 4 3 10 0 14 -4 3 -7 0 -7 -7z"/>
<path d="M565 770 c3 -5 8 -10 11 -10 2 0 4 5 4 10 0 6 -5 10 -11 10 -5 0 -7
-4 -4 -10z"/>
<path d="M2231 721 c-7 -5 -11 -17 -9 -27 4 -17 5 -17 17 4 14 27 12 35 -8 23z"/>
<path d="M2373 555 c0 -8 4 -15 9 -15 4 0 8 4 8 9 0 6 -4 12 -8 15 -5 3 -9 -1
-9 -9z"/>
<path d="M70 526 c0 -2 8 -10 18 -17 15 -13 16 -12 3 4 -13 16 -21 21 -21 13z"/>
<path d="M2385 520 c3 -5 8 -10 11 -10 3 0 2 5 -1 10 -3 6 -8 10 -11 10 -3 0
-2 -4 1 -10z"/>
<path d="M573 113 c4 -3 10 -3 14 0 3 4 0 7 -7 7 -7 0 -10 -3 -7 -7z"/>
</g>
</svg>
